<?xml version="1.0" encoding="UTF-8" standalone="no"?>
<!-- Created with Inkscape (http://www.inkscape.org/) -->

<svg
   xmlns:dc="http://purl.org/dc/elements/1.1/"
   xmlns:cc="http://creativecommons.org/ns#"
   xmlns:rdf="http://www.w3.org/1999/02/22-rdf-syntax-ns#"
   xmlns:svg="http://www.w3.org/2000/svg"
   xmlns="http://www.w3.org/2000/svg"
   xmlns:sodipodi="http://sodipodi.sourceforge.net/DTD/sodipodi-0.dtd"
   xmlns:inkscape="http://www.inkscape.org/namespaces/inkscape"
   width="158.25902"
   height="135.14424"
   viewBox="0 0 41.8727 35.756912"
   version="1.1"
   id="svg48"
   inkscape:version="0.92.5 (2060ec1f9f, 2020-04-08)"
   sodipodi:docname="logoteddy.svg">
  <defs
     id="defs42" />
  <sodipodi:namedview
     id="base"
     pagecolor="#ffffff"
     bordercolor="#666666"
     borderopacity="1.0"
     inkscape:pageopacity="0.0"
     inkscape:pageshadow="2"
     inkscape:zoom="1.979899"
     inkscape:cx="168.25021"
     inkscape:cy="110.18635"
     inkscape:document-units="mm"
     inkscape:current-layer="layer1"
     showgrid="false"
     fit-margin-top="0"
     fit-margin-left="0"
     fit-margin-right="0"
     fit-margin-bottom="0"
     units="px"
     inkscape:window-width="1920"
     inkscape:window-height="977"
     inkscape:window-x="1080"
     inkscape:window-y="444"
     inkscape:window-maximized="1" />
  <metadata
     id="metadata45">
    <rdf:RDF>
      <cc:Work
         rdf:about="">
        <dc:format>image/svg+xml</dc:format>
        <dc:type
           rdf:resource="http://purl.org/dc/dcmitype/StillImage" />
        <dc:title></dc:title>
      </cc:Work>
    </rdf:RDF>
  </metadata>
  <g
     inkscape:label="Layer 1"
     inkscape:groupmode="layer"
     id="layer1"
     transform="translate(-129.49817,-171.02035)">
    <path
       style="display:inline;opacity:1;fill:#f7f7f7;fill-opacity:1;stroke:#000000;stroke-width:0.34819102;stroke-linecap:round;stroke-linejoin:round;stroke-miterlimit:4;stroke-dasharray:none;stroke-opacity:1"
       d="m 137.88061,171.19445 a 8.2081918,8.2081918 0 0 0 -8.20834,8.20765 8.2081918,8.2081918 0 0 0 4.60878,7.36642 16.497452,16.497452 0 0 0 -0.34411,3.33704 16.497452,16.497452 0 0 0 16.4976,16.49761 16.497452,16.497452 0 0 0 16.49757,-16.49761 16.497452,16.497452 0 0 0 -0.35771,-3.32686 8.2081918,8.2081918 0 0 0 4.62238,-7.3766 8.2081918,8.2081918 0 0 0 -8.20833,-8.20765 8.2081918,8.2081918 0 0 0 -6.71901,3.50096 16.497452,16.497452 0 0 0 -5.8349,-1.08743 16.497452,16.497452 0 0 0 -5.84853,1.07859 8.2081918,8.2081918 0 0 0 -6.7054,-3.49212 z"
       id="path1512"
       inkscape:connector-curvature="0" />
    <path
       style="display:inline;opacity:1;fill:#f9d400;fill-opacity:1;stroke:#797979;stroke-width:0.52228647;stroke-linecap:round;stroke-linejoin:round;stroke-miterlimit:4;stroke-dasharray:none;stroke-opacity:1;image-rendering:auto"
       d="m 137.88061,172.8198 a 6.5827354,6.5827354 0 0 0 -6.58299,6.5823 6.5827354,6.5827354 0 0 0 5.05422,6.39528 14.728676,14.728676 0 0 0 -0.64607,4.30818 14.728676,14.728676 0 0 0 14.72877,14.72877 14.728676,14.728676 0 0 0 14.72875,-14.72877 14.728676,14.728676 0 0 0 -0.6583,-4.30544 6.5827354,6.5827354 0 0 0 5.06645,-6.39802 6.5827354,6.5827354 0 0 0 -6.58299,-6.5823 6.5827354,6.5827354 0 0 0 -6.08315,4.07491 14.728676,14.728676 0 0 0 -6.47076,-1.51789 14.728676,14.728676 0 0 0 -6.47691,1.5111 6.5827354,6.5827354 0 0 0 -6.07702,-4.06812 z"
       id="circle1635"
       inkscape:connector-curvature="0" />
    <circle
       style="display:inline;opacity:1;fill:#ffe433;fill-opacity:0.99997313;stroke:none;stroke-width:1.07694125;stroke-linecap:round;stroke-linejoin:round;stroke-opacity:0.98039216"
       id="path4286"
       cx="149.48203"
       cy="191.06235"
       r="13.241856" />
    <ellipse
       style="display:inline;opacity:1;fill:#00d200;fill-opacity:1;fill-rule:nonzero;stroke:none;stroke-width:0.63616252;stroke-linecap:round;stroke-linejoin:round;stroke-miterlimit:4;stroke-dasharray:none;stroke-opacity:1"
       id="path5112"
       cx="172.38385"
       cy="164.55727"
       rx="3.2722857"
       ry="4.82338"
       transform="rotate(9.0595494)" />
    <ellipse
       ry="6.6006093"
       rx="5.3154054"
       cy="233.01883"
       cx="72.278809"
       id="ellipse5114"
       style="display:inline;opacity:1;fill:#00d200;fill-opacity:1;fill-rule:nonzero;stroke:none;stroke-width:0.94847721;stroke-linecap:round;stroke-linejoin:round;stroke-miterlimit:4;stroke-dasharray:none;stroke-opacity:1"
       transform="rotate(-22.241552)" />
    <path
       style="display:inline;opacity:1;fill:#ffe433;fill-opacity:1;fill-rule:nonzero;stroke:none;stroke-width:0.62274939;stroke-linecap:round;stroke-linejoin:round;stroke-miterlimit:4;stroke-dasharray:none;stroke-opacity:1"
       d="m 136.722,175.14035 a 4.1908481,4.1783206 0 0 0 -4.19121,4.17828 4.1908481,4.1783206 0 0 0 3.47443,4.11234 14.891739,14.794562 0 0 1 4.69855,-5.399 4.1908481,4.1783206 0 0 0 -3.98177,-2.89162 z"
       id="path5227"
       inkscape:connector-curvature="0" />
    <path
       inkscape:connector-curvature="0"
       id="path5278"
       d="m 162.12352,175.21547 a 3.9862101,3.9742943 0 0 1 3.98656,3.97427 3.9862101,3.9742943 0 0 1 -3.30478,3.91154 14.16458,14.072147 0 0 0 -4.46909,-5.13538 3.9862101,3.9742943 0 0 1 3.78731,-2.75043 z"
       style="display:inline;opacity:1;fill:#ffe433;fill-opacity:1;fill-rule:nonzero;stroke:none;stroke-width:0.59234071;stroke-linecap:round;stroke-linejoin:round;stroke-miterlimit:4;stroke-dasharray:none;stroke-opacity:1" />
    <circle
       style="display:inline;opacity:1;fill:#00d200;fill-opacity:1;fill-rule:nonzero;stroke:none;stroke-width:0.52228647;stroke-linecap:round;stroke-linejoin:round;stroke-miterlimit:4;stroke-dasharray:none;stroke-opacity:1"
       id="path5294"
       cx="149.52515"
       cy="198.07343"
       r="1.0042274" />
  </g>
</svg>
